<svg width="20" height="20" viewBox="0 0 20 20" fill="none" xmlns="http://www.w3.org/2000/svg">
<path d="M9.99993 1.83332C9.75082 1.83148 9.50631 1.90035 9.29478 2.03193C9.08326 2.16351 8.91339 2.35239 8.80493 2.57665L6.95326 6.32998L2.80993 6.93165C2.56348 6.96716 2.3319 7.07097 2.14142 7.23132C1.95094 7.39167 1.80916 7.60215 1.73214 7.83893C1.65512 8.0757 1.64594 8.32932 1.70564 8.57104C1.76534 8.81277 1.89153 9.03295 2.06993 9.20665L5.06993 12.1283L4.36159 16.255C4.31946 16.5001 4.34673 16.7521 4.44032 16.9826C4.53391 17.213 4.69009 17.4127 4.89121 17.559C5.09232 17.7053 5.33036 17.7925 5.57842 17.8106C5.82648 17.8288 6.07466 17.7772 6.29493 17.6617L9.99993 15.7133V1.83332Z" fill="#FFAD33"/>
<path opacity="0.25" d="M9.99992 1.83592C10.249 1.83401 10.5 1.99998 10.5 1.99998C10.5 1.99998 11.0865 2.20804 11.1949 2.44192L13.0466 6.35631L17.1901 6.9838C17.4365 7.02083 17.6681 7.12909 17.8586 7.29632C18.0491 7.46355 18.1908 7.68306 18.2679 7.93C18.3449 8.17694 18.3541 8.44144 18.2944 8.69354C18.2347 8.94564 18.1085 9.17527 17.9301 9.35642L14.93 12.4035L15.6384 16.7072C15.6805 16.9628 15.6532 17.2257 15.5596 17.466C15.466 17.7063 15.3099 17.9146 15.1087 18.0672C14.9076 18.2198 14.6696 18.3107 14.4215 18.3296C14.1734 18.3485 13.9253 18.2947 13.705 18.1742L9.99992 16.1423V1.83592Z" fill="black"/>
</svg>
